<?xml version="1.0" standalone="no"?>
<!DOCTYPE svg PUBLIC "-//W3C//DTD SVG 20010904//EN"
 "http://www.w3.org/TR/2001/REC-SVG-20010904/DTD/svg10.dtd">
<svg version="1.0" xmlns="http://www.w3.org/2000/svg"
 width="256.000000pt" height="256.000000pt" viewBox="0 0 256.000000 256.000000"
 preserveAspectRatio="xMidYMid meet">

<g transform="translate(0.000000,256.000000) scale(0.100000,-0.100000)"
fill="#000000" stroke="none">
<path d="M0 2513 l0 -48 20 32 c10 17 32 39 47 47 l28 15 -47 1 -48 0 0 -47z"/>
<path d="M175 2549 c11 -6 264 -255 563 -553 l542 -541 543 541 c298 298 551
547 562 553 14 7 -290 10 -1105 10 -815 0 -1119 -3 -1105 -10z"/>
<path d="M2497 2540 c17 -10 39 -32 47 -47 l15 -28 1 48 0 47 -47 0 -48 0 32
-20z"/>
<path d="M1 1280 c0 -815 3 -1119 10 -1105 6 11 255 264 553 563 l541 542
-541 543 c-298 298 -547 551 -553 562 -7 14 -10 -290 -10 -1105z"/>
<path d="M2550 2388 c0 -7 -246 -259 -547 -560 l-548 -548 541 -543 c298 -298
547 -551 553 -562 7 -14 10 290 11 1103 0 617 -2 1122 -5 1122 -3 0 -5 -6 -5
-12z"/>
<path d="M745 569 c-292 -292 -543 -540 -560 -550 -30 -19 -13 -19 1095 -19
1108 0 1125 0 1095 19 -16 10 -268 258 -560 550 -291 292 -532 531 -535 531
-3 0 -244 -239 -535 -531z"/>
<path d="M0 48 l0 -48 48 0 47 0 -32 20 c-17 10 -39 32 -47 47 l-15 28 -1 -47z"/>
<path d="M2542 65 c-6 -14 -26 -34 -44 -45 l-33 -20 48 0 47 0 0 45 c0 25 -2
45 -3 45 -2 0 -9 -11 -15 -25z"/>
</g>
</svg>
